<?xml version="1.0" encoding="utf-8"?>
<!-- Generator: Adobe Illustrator 24.1.1, SVG Export Plug-In . SVG Version: 6.00 Build 0)  -->
<svg version="1.1" id="Layer_1" xmlns="http://www.w3.org/2000/svg" xmlns:xlink="http://www.w3.org/1999/xlink" x="0px" y="0px"
	 viewBox="0 0 512 512" style="enable-background:new 0 0 512 512;" xml:space="preserve">
<g>
	<path d="M349.3,207.2c10.2-6.3,17-14.8,20.3-25.7c-9.9,5.3-19.8,8.9-29.7,10.9c-8.9-9.6-20.1-14.4-33.6-14.4
		c-13.2,0-24.3,4.6-33.4,13.6c-9,9-13.6,20.1-13.6,32.9c0,3.9,0.5,7.4,1.5,10.3c-38.9-1.4-71.1-17.5-96.5-48.5
		c-4.3,7.6-6.5,15.3-6.5,23.3c0,16.4,6.9,29.5,20.8,39.1c-7.9-0.7-14.8-2.7-20.8-5.9c0,11.7,3.4,21.6,10.4,30.2
		c6.9,8.5,15.8,14,26.7,16.3c-4,1-8.1,1.5-12.4,1.5c-4,0-6.7-0.3-8.4-1.1c3,9.6,8.4,17.3,16.3,23.3c7.9,6,17,9.1,27.2,9.4
		c-16.8,13.2-36.1,19.7-57.9,19.7c-5.4,0-9.1-0.1-11.4-0.5c21.5,13.9,45.3,20.9,71.7,20.9c27.1,0,51-6.9,71.7-20.6
		c20.8-13.6,36.2-30.4,46-50.3c9.9-19.8,14.8-40.4,14.8-61.8v-5.9c9.6-7.2,17.3-15.3,23.3-24.3C367.4,203.3,358.5,205.9,349.3,207.2
		z M256,512c-70.8,0-131.8-25.3-181.4-75.3C25.1,386.9,0,326.1,0,256c0-70.8,25.1-131.8,74.7-181.3C124.2,25.1,185.2,0,256,0
		c70.1,0,131,25.1,180.7,74.6C486.7,124.2,512,185.2,512,256c0,70.1-25.3,131-75.2,180.8C387,486.7,326.2,512,256,512z M256,56.9
		c-55.9,0-102.1,19-141,58c-39.1,39-58.1,85.2-58.1,141.1c0,55.3,19,101.3,58.1,140.7c39,39.3,85.1,58.5,141,58.5
		c55.3,0,101.3-19.1,140.6-58.5c39.4-39.4,58.5-85.4,58.5-140.6c0-55.8-19.1-102-58.5-141C357.3,75.9,311.3,56.9,256,56.9z"/>
</g>
</svg>
